<svg xmlns="http://www.w3.org/2000/svg" version="1.1" xmlns:xlink="http://www.w3.org/1999/xlink" xmlns:svgjs="http://svgjs.dev/svgjs" width="1500" height="1500" viewBox="0 0 1500 1500"><rect width="1500" height="1500" fill="#e9efe7"></rect><g transform="matrix(0.6666666666666666,0,0,0.6666666666666666,250.00007343750008,187.66666666666674)"><svg viewBox="0 0 320 360" data-background-color="#e9efe7" preserveAspectRatio="xMidYMid meet" height="1687" width="1500" xmlns="http://www.w3.org/2000/svg" xmlns:xlink="http://www.w3.org/1999/xlink"><g id="tight-bounds" transform="matrix(1,0,0,1,0.000023499999997511622,0)"><svg viewBox="0 0 320 360" height="360" width="320"><g><svg></svg></g><g><svg viewBox="0 0 320 360" height="360" width="320"><g><path transform="translate(-74.99272,-51.79039) scale(4.65793,4.65793)" d="M20.6 59.9l0.8 1-0.4-1.3c-0.1-0.6-0.8 0.1-0.4 0.3M21.5 59.3c0.3 0.5 0.6 1 0.6 1.5 0 0.7 0.6 1 1.1 1.2-0.7-0.8-1.1-3-1.7-2.7M59.9 16.9c1.7 0 3.3-0.2 5.1 0.2 4.4 1.1 8.1 3.3 10.6 6.4l7 11.2c0.3 2.8 0.9 5.9 0.8 9.3 0.7 0 0.6-1 1.4-1.2-0.8 2-1.2 4.5-1.4 7.4-0.5-1.6 0-4 0.1-5.3-0.7 1.1-1.1 0.3-1.1-0.2 0.1-0.8-0.3-0.7-0.6-1-1.1-1-1.8-2.1-2.6-3.8 0.5-1.3 0.6-3.2-1-4.2-0.5-0.3-1.1-0.8-1.4-1.6-0.4-1.1-1.1-2.4-0.9-4.1 0.1-0.5-1.5 1.1-2.4 0.4-3.9-2.7-7.8-5.8-12.5-8.4-2.5 0-4.3-0.9-5.2-2-0.8-1-0.2-2.3 1-2.4 0.7 0 1.5-0.2 2.1 0.2 0.1-0.4 0.5-0.9 1-0.9M50 14.6l0.2 0.1c1 0.2 1.5 1.6 2.6 1.1 0 0.7 0.1 1.4-0.1 1.9-0.3 0.8-1.2 0.8-1.9 0.8-6.7-0.4-10.6 2.4-14.7 4.8-1.1 0.7-2.3 1.2-3.2 2.1-4.3 4-9 7.7-10.1 15.1l-0.9 8.2c-0.1 0.9-1.1 1.8-0.9 2.9l0.7 4.9c-0.7-0.7-1.1 0.2-0.9 0.6 0.1 0.3 0.5 1.3 1.1 0.4 0.8 1.5 1.6 4.4 2.7 5.7 3.4 4 7.8 7.6 11.4 11.2 0.9-0.2 1.6-0.2 1.8-0.8 0.3 0.6-0.3 1.2-0.8 1.3 1.6 1 3.4 1.9 5.8 2.1 3.1 0.2 6 0.7 8.7 1.4 1.4-0.4 2.8-0.6 4.3-0.7 0.5 0 0.8-0.8 1.4-1l0.1-1c0.6 0.9 0.5-0.3 0.1-0.9 0.7 0.6 0.9 1.1 1.2 1.5 0-0.3 0.8-1.4 0.8-0.1l0.2-1.3c0.3-0.2 0.4 1.1 0.7 0.2 0.3-0.9 0.9-0.2 1.5-0.5-0.2 0.4-0.1 1.2 0.6 0.7l0.8-0.7c0.5 1.2 1.3 0.7 1.7 0.5 4.4-2.8 8.8-6.1 13-9.4l-0.1 1.3 0.5-1.6c0.5 0.5 0.9 0.1 1.1-0.2 0.6-1 1.4-2 2.7-2.9-1.6 4.3-3.5 7.7-5.9 10.5l-1 1.2c0 0.7-0.2 1.6-1 1.7-0.4 0.1-1.2-0.2-1.8 0.4-0.3 0.4 0.7 1.2-0.1 0.6-0.7-0.5-1.4 0-2.2 0.2-0.6 0.2 0.4 0.8 0.6 1.2 0.2 0.4 0.4 0.8 0.3 1.3l-1.1-1.2c-1.3 0.7-2.1 2-3.2 3-0.5 0.4-0.3 1.1-0.3 1.7-0.7 0-1.5-0.2-1.9 0.2-0.3 0.4-0.2 1-0.2 1.6-1-0.1-1.1-1.6-2-1.3-0.9 0.2-1.9 0.3-2.7 0.8 0.6 1.2-1 0.5-0.8 0.7-1.5-0.9-2.8-1.6-4.4-1-3.4-1.1-7.6-0.6-10.7-0.2 0-0.5 0.1-1-0.1-1.1-0.2 0.5-0.8 0.3-0.7 0.3-1.9-1.3-3.8-2.1-5.8-3.2-1.8 0.2-3.5-0.7-4-1.2-1.4-1.3-3-0.6-4.3-0.9-2.8-0.7-3.8-3.6-4.1-5.6-0.2-1-1-1.4-1.3-1.3-1.3-4.2-3.3-8-4.9-11.9-0.4-1-0.3-2-0.3-3.1 0.5 0.2 1 0.1 0.9-0.6-0.5-3.3-1.7-5.8-3-8.2 0.7-3.4 0.8-7.4 2.4-10.4 1.4-2.7 4-4.1 5.8-6.4 0.6-0.8 0.6-1.9 1.2-2.6 2-2 4-4.1 6.2-5.9 1-0.8 2.2 0 3.7-0.3 0.5-1.8 2.5-3.4 4.4-2.9 0.8 0.2 2.4-1.9 2.9-2.1 0.8-0.3 0.4 0.8 0.4 1.5 1.9-1.5 4.5-2.3 6.9-3.2" fill="#2a2c35" fill-rule="nonzero" stroke="none" stroke-width="1" stroke-linecap="butt" stroke-linejoin="miter" stroke-miterlimit="10" stroke-dasharray="" stroke-dashoffset="0" font-family="none" font-weight="none" font-size="none" text-anchor="none" style="mix-blend-mode: normal" data-fill-palette-color="tertiary"></path></g><g transform="matrix(1,0,0,1,86.65257323165397,90)"><svg viewBox="0 0 146.69485353669205 180" height="180" width="146.69485353669205"><g><svg viewBox="0 0 192 235.59108698626346" height="180" width="146.69485353669205"><g transform="matrix(1,0,0,1,0,79.05461639802817)"><svg viewBox="0 0 192 156.5364705882353" height="156.5364705882353" width="192"><g id="textblocktransform"><svg viewBox="0 0 192 156.5364705882353" height="156.5364705882353" width="192" id="textblock"><g><svg viewBox="0 0 192 156.5364705882353" height="156.5364705882353" width="192"><g transform="matrix(1,0,0,1,0,0)"><svg width="192" viewBox="1.75 -34 42.5 34.65" height="156.5364705882353" data-palette-color="#2a2c35"><path d="M12 0.65L12 0.65Q10.15 0.65 8.83 0 7.5-0.65 6.5-1.65L6.5-1.65Q6-0.8 5.33-0.13 4.65 0.55 3.8 0.55L3.8 0.55Q3.25 0.55 2.75 0.23 2.25-0.1 2.35-0.65L2.35-0.65Q3.1-4.65 3.63-8.75 4.15-12.85 4.15-17.1L4.15-17.1Q4.15-20.65 3.9-23.75 3.65-26.85 2.35-29.45L2.35-29.45Q2.1-29.95 1.93-30.4 1.75-30.85 1.75-31.25L1.75-31.25Q1.75-32.2 2.85-33.1 3.95-34 5.2-34L5.2-34Q7-34 7.65-31.8 8.3-29.6 8.3-25.3L8.3-25.3Q8.3-21.65 7.98-18.63 7.65-15.6 7.25-13.45L7.25-13.45Q8.65-16.4 11.08-18.43 13.5-20.45 16.55-20.45L16.55-20.45Q19.6-20.45 21.33-18.43 23.05-16.4 23.05-12.95L23.05-12.95Q23.05-10.4 22.25-7.98 21.45-5.55 20-3.6 18.55-1.65 16.53-0.5 14.5 0.65 12 0.65ZM13.15-4.75L13.15-4.75Q16-4.75 17.55-6.55 19.1-8.35 19.1-10.7L19.1-10.7Q19.1-12.75 17.98-13.88 16.85-15 15-15L15-15Q13.15-15 11.7-13.88 10.25-12.75 9.25-10.93 8.25-9.1 7.7-7L7.7-7Q8.85-5.9 10.28-5.33 11.7-4.75 13.15-4.75ZM34.15 0.65L34.15 0.65Q30.65 0.65 28.67-1.48 26.7-3.6 26.7-7.4L26.7-7.4Q26.7-11.15 28.3-14.1 29.9-17.05 32.7-18.75 35.5-20.45 39.05-20.45L39.05-20.45Q41.45-20.45 42.85-19.65 44.25-18.85 44.25-17.45L44.25-17.45Q44.25-16.2 43.05-15L43.05-15Q42.6-14.55 41.87-14.18 41.15-13.8 40.75-13.8L40.75-13.8Q40.3-13.8 40-14.15L40-14.15Q39.5-14.7 38.7-15.2 37.9-15.7 36.45-15.7L36.45-15.7Q34-15.7 32.45-14.03 30.9-12.35 30.9-9.65L30.9-9.65Q30.9-7.2 32.3-5.7 33.7-4.2 36-4.2L36-4.2Q37.2-4.2 38.62-4.63 40.05-5.05 41.15-5.85L41.15-5.85Q41.7-6.35 42.3-6.35L42.3-6.35Q43.3-6.35 43.3-5.1L43.3-5.1Q43.3-3.45 41.65-1.95L41.65-1.95Q40.4-0.8 38.32-0.08 36.25 0.65 34.15 0.65Z" opacity="1" transform="matrix(1,0,0,1,0,0)" fill="#2a2c35" class="wordmark-text-0" data-fill-palette-color="primary" id="text-0"></path></svg></g></svg></g></svg></g></svg></g><g transform="matrix(1,0,0,1,36.672,0)"><svg viewBox="0 0 118.656 56.212188463910536" height="56.212188463910536" width="118.656"><g><svg xmlns="http://www.w3.org/2000/svg" xmlns:xlink="http://www.w3.org/1999/xlink" version="1.1" x="0" y="0" viewBox="4.995640625233051 28.67889971222529 90.00398927548014 42.638561957735575" enable-background="new 0 0 100 100" xml:space="preserve" height="56.212188463910536" width="118.656" class="icon-icon-0" data-fill-palette-color="accent" id="icon-0"><g fill="#2a2c35" data-fill-palette-color="accent"><path d="M53.819 45.873c-0.01 0.018 0.028 0.001 0.159-0.114-0.008 0.004-0.015 0.008-0.023 0.013C53.911 45.805 53.865 45.839 53.819 45.873z" fill="#2a2c35" data-fill-palette-color="accent"></path><path d="M94.943 46.752c-0.819-1.952-2.029-3.815-3.315-5.492-1.155-1.506-2.472-2.887-3.944-4.086-2.956-2.408-6.463-4.011-10.151-4.933-1.206-0.301-2.425-0.537-3.653-0.725-0.6-0.307-1.213-0.59-1.836-0.849-2.748-1.143-5.628-1.676-8.587-1.886-2.838-0.202-5.729-0.134-8.518 0.475-3.556 0.777-6.678 2.588-9.031 5.224-0.033-0.094-0.118-0.166-0.274-0.194-2.185-0.386-4.538 0.126-6.216 1.629-1.583 1.418-2.428 3.421-2.656 5.505-0.449 4.119 1.656 8.662 5.455 10.523 1.134 0.555 2.387 0.858 3.646 0.906-1.483 0.338-2.997 0.343-4.546-0.02-1.929-0.452-4.152-1.584-4.964-3.506-0.512-1.213-0.334-2.548 0.168-3.733 0.319-0.753-0.689-0.656-0.944-0.131-1.138 2.347-1.036 4.997 0.89 6.896 1.857 1.831 4.678 2.507 7.218 2.445 1.451-0.035 3.019-0.351 4.229-1.19 0.296-0.205 0.633-0.535 0.613-0.926 0.81-0.145 1.592-0.393 2.246-0.793 0.361-0.221 0.751-0.652 0.725-1.112-0.003-0.048-0.01-0.093-0.021-0.136 0.217-0.235 0.366-0.54 0.447-0.886-0.07 0.301 0.033-0.105 0.041-0.136 0.042-0.16 0.091-0.345 0.123-0.516 0.04-0.206 0.072-0.414 0.112-0.62 0.017-0.088 0.035-0.177 0.052-0.265 0.008-0.032 0.017-0.064 0.024-0.086 0.067-0.198 0.128-0.397 0.208-0.591 0.064-0.154 0.306-0.58 0.087-0.217 0.093-0.154 0.181-0.309 0.282-0.457 0.1-0.145 0.219-0.277 0.319-0.422 0.002-0.002 0.002-0.004 0.004-0.006 0.067-0.064 0.13-0.133 0.198-0.196 0.126-0.119 0.258-0.232 0.394-0.339 0.015-0.012 0.032-0.023 0.048-0.034 0.008-0.015 0.048-0.052 0.094-0.078 0.014-0.008 0.028-0.016 0.042-0.023 0.022-0.017 0.045-0.032 0.065-0.051-0.015 0.014-0.029 0.026-0.043 0.038 0.316-0.175 0.625-0.343 0.957-0.492 0.044-0.02 0.073-0.034 0.096-0.045 0.025-0.006 0.057-0.015 0.105-0.028 0.171-0.048 0.341-0.1 0.514-0.141 0.174-0.041 0.35-0.076 0.526-0.105 0.106-0.018 0.214-0.028 0.32-0.046 0.004-0.001 0.006-0.001 0.01-0.002 0.007 0 0.012 0 0.021 0 0.365-0.005 0.725-0.027 1.091-0.005 0.183 0.011 0.364 0.038 0.547 0.051 0.013 0.001 0.022 0.001 0.033 0.002 0.006 0.001 0.01 0.002 0.017 0.004 0.108 0.023 0.217 0.041 0.325 0.064 0.36 0.079 0.715 0.181 1.062 0.307 0.069 0.025 0.394 0.163 0.385 0.153 0.16 0.077 0.319 0.158 0.474 0.246 0.324 0.185 0.626 0.399 0.923 0.623 0.06 0.046 0.328 0.301 0.048 0.035 0.054 0.052 0.113 0.099 0.165 0.153 0.16 0.162 0.32 0.321 0.469 0.493 0.125 0.145 0.241 0.297 0.356 0.45 0.003 0.004 0.051 0.074 0.089 0.127 0.036 0.057 0.082 0.13 0.085 0.134 0.22 0.389 0.404 0.79 0.559 1.209-0.001-0.004 0.035 0.107 0.06 0.179 0.02 0.075 0.055 0.198 0.054 0.192 0.053 0.214 0.096 0.431 0.131 0.649 0.09 0.558 0.133 1.13 0.124 1.694-0.013 0.876-0.115 1.698-0.314 2.495-2.571 2.018-5.467 3.328-8.67 4.003-3.318 0.699-6.677 0.84-10.057 0.882-8.082 0.101-16.145-0.421-24.22-0.628-4.857-0.124-9.782-0.179-14.615 0.374-0.889 0.102-0.862 1.614 0.07 1.59 4.381-0.113 8.748-0.151 13.129 0.021 4.388 0.172 8.772 0.438 13.161 0.606 3.899 0.149 7.804 0.221 11.706 0.192 1.478-0.011 2.969-0.055 4.456-0.159-6.816 1.465-13.796 2.221-20.751 2.844-2.366 0.212-4.73 0.442-7.098 0.621-0.667 0.051-1.111 1.202-0.239 1.201 5.768-0.009 11.514-0.346 17.245-1.002 4.202-0.48 8.393-1.103 12.521-2.034 3.613-0.814 7.284-1.83 10.573-3.573 0.032-0.017 0.064-0.035 0.096-0.052-0.468 0.521-0.976 1.014-1.515 1.482-3.091 2.682-6.91 4.315-10.774 5.736-2.283 0.84-4.794 1.6-7.236 2.169-1.029 0.24-2.269 0.481-3.205 0.577-0.486 0.05-0.977 0.073-1.465 0.065-0.349-0.006-0.671-0.045-1.004 0.111-0.155 0.073-0.301 0.173-0.456 0.248-0.416 0.203-0.604 0.778-0.288 1.148 0.359 0.421 0.704 0.651 1.272 0.703 0.472 0.044 0.948 0.045 1.422 0.029 1.136-0.039 2.271-0.18 3.391-0.368 2.494-0.417 4.944-1.115 7.345-1.899 4.473-1.462 8.846-3.205 12.514-6.228 2.129-1.755 3.951-3.941 5.001-6.511 0.988-2.419 1.338-5.368 0.661-7.915-1.046-3.938-4.616-6.504-8.65-6.597-1.305-0.03-2.618 0.203-3.819 0.701 0.112-0.094 0.224-0.188 0.34-0.279 0.035-0.028 0.072-0.054 0.108-0.08 0.031-0.019 0.186-0.127 0.207-0.141 0.143-0.094 0.287-0.184 0.433-0.273 0.37-0.224 0.749-0.43 1.138-0.618-0.016 0.008 0.126-0.058 0.198-0.092 0.074-0.031 0.219-0.094 0.202-0.087 0.183-0.076 0.368-0.148 0.554-0.217 0.416-0.154 0.839-0.29 1.266-0.409 0.807-0.224 1.483-0.352 2.387-0.454 1.641-0.185 3.182-0.154 4.809 0.141 3.131 0.567 5.705 2.383 7.321 5.172 1.765 3.047 2.078 6.724 1.211 10.102-1.215 4.732-4.612 8.574-8.688 11.123-0.492 0.308-0.345 1.087 0.267 0.737 4.133-2.365 7.668-5.909 9.399-10.405 1.413-3.67 1.64-7.841 0.154-11.53-1.386-3.441-4.072-6.066-7.635-7.126-3.531-1.05-7.578-0.751-10.992 0.588-2.098 0.822-4.001 2.053-5.476 3.771-1.382 1.611-2.478 3.844-2.222 6.006 0.032 0.27 0.131 0.442 0.269 0.541-0.001 0.188 0.01 0.376 0.031 0.562-1.552-0.803-2.874-2.052-3.632-3.642-1.054-2.209-1.001-4.606 0.106-6.788 1.865-3.675 4.896-6.223 8.851-7.288 2.408-0.648 4.914-0.78 7.396-0.685 2.686 0.103 5.327 0.455 7.878 1.328 4.562 1.561 8.746 4.71 11.256 8.86 1.346 2.226 2.223 4.71 2.446 7.306 0.108 1.264 0.049 2.518-0.162 3.771-0.232 1.382-0.718 2.683-1.108 4.025-0.157 0.542-0.074 1.135 0.509 1.376 0.531 0.219 1.236-0.001 1.546-0.501 1.518-2.446 1.99-5.514 1.896-8.358-0.086-2.573-0.785-5.147-1.937-7.446-1.396-2.788-3.397-5.186-5.784-7.128 0.923 0.335 1.831 0.712 2.719 1.137 3.259 1.561 6.129 3.813 8.398 6.627 1.444 1.792 2.507 3.761 3.636 5.753C93.575 48.877 95.336 47.689 94.943 46.752zM52.244 48.271C52.228 48.343 52.232 48.32 52.244 48.271L52.244 48.271zM43.761 37.493c-1.56 2.782-2.187 6.097-0.78 9.093 0.868 1.848 2.317 3.293 4.067 4.225-0.849 0.014-1.944-0.154-2.728-0.446-1.794-0.668-3.146-1.882-4.165-3.509-0.908-1.45-1.424-3.308-1.475-5.036-0.027-0.926 0.037-1.574 0.289-2.463 0.131-0.462 0.162-0.551 0.379-0.996 0.235-0.481 0.274-0.541 0.565-0.915 0.46-0.59 1.142-1.143 1.881-1.474 1.06-0.474 2.258-0.611 3.409-0.647C44.674 36.002 44.191 36.725 43.761 37.493z" fill="#2a2c35" data-fill-palette-color="accent"></path></g></svg></g></svg></g><g></g></svg></g></svg></g></svg></g><defs></defs></svg><rect width="320" height="360" fill="none" stroke="none" visibility="hidden"></rect></g></svg></g></svg>